REM DIRINDEX 1\2,1\3,1\4,1\5,1\6
REM DIRNAME folder01,folder02,folder03,folder04,folder05,folder06
TITLE ""
FILE "DISC3Track23.mp3" MP3
  TRACK 01 AUDIO
    TITLE "0:"
    INDEX 01 00:00:00
  TRACK 02 AUDIO
    TITLE "3:cjc129_2676"
    INDEX 01 00:00:05
  TRACK 03 AUDIO
    TITLE "0:"
    INDEX 01 00:01:69
  TRACK 04 AUDIO
    TITLE "5:cjc129_2677"
    INDEX 01 00:02:24
  TRACK 05 AUDIO
    TITLE "0:"
    INDEX 01 00:04:48
  TRACK 06 AUDIO
    TITLE "4:cjc129_2678"
    INDEX 01 00:05:38
  TRACK 07 AUDIO
    TITLE "0:"
    INDEX 01 00:07:27
  TRACK 08 AUDIO
    TITLE "6:cjc129_2679"
    INDEX 01 00:07:56
  TRACK 09 AUDIO
    TITLE "0:"
    INDEX 01 00:12:30
  TRACK 10 AUDIO
    TITLE "3:cjc129_2680"
    INDEX 01 00:14:06
  TRACK 11 AUDIO
    TITLE "0:"
    INDEX 01 00:15:48
  TRACK 12 AUDIO
    TITLE "5:cjc129_2681"
    INDEX 01 00:16:02
  TRACK 13 AUDIO
    TITLE "0:"
    INDEX 01 00:18:33
  TRACK 14 AUDIO
    TITLE "4:cjc129_2682"
    INDEX 01 00:19:26
  TRACK 15 AUDIO
    TITLE "0:"
    INDEX 01 00:20:69
  TRACK 16 AUDIO
    TITLE "6:cjc129_2683"
    INDEX 01 00:21:23
  TRACK 17 AUDIO
    TITLE "0:"
    INDEX 01 00:25:66
  TRACK 18 AUDIO
    TITLE "3:cjc129_2684"
    INDEX 01 00:27:41
  TRACK 19 AUDIO
    TITLE "0:"
    INDEX 01 00:29:74
  TRACK 20 AUDIO
    TITLE "5:cjc129_2685"
    INDEX 01 00:30:30
  TRACK 21 AUDIO
    TITLE "0:"
    INDEX 01 00:33:34
  TRACK 22 AUDIO
    TITLE "4:cjc129_2686"
    INDEX 01 00:34:24
  TRACK 23 AUDIO
    TITLE "0:"
    INDEX 01 00:36:56
  TRACK 24 AUDIO
    TITLE "6:cjc129_2687"
    INDEX 01 00:37:12
  TRACK 25 AUDIO
    TITLE "0:"
    INDEX 01 00:41:36
  TRACK 26 AUDIO
    TITLE "3:cjc129_2688"
    INDEX 01 00:43:11
  TRACK 27 AUDIO
    TITLE "0:"
    INDEX 01 00:44:60
  TRACK 28 AUDIO
    TITLE "5:cjc129_2689"
    INDEX 01 00:45:14
  TRACK 29 AUDIO
    TITLE "0:"
    INDEX 01 00:49:59
  TRACK 30 AUDIO
    TITLE "4:cjc129_2690"
    INDEX 01 00:50:52
  TRACK 31 AUDIO
    TITLE "0:"
    INDEX 01 00:52:24
  TRACK 32 AUDIO
    TITLE "6:cjc129_2691"
    INDEX 01 00:52:55
  TRACK 33 AUDIO
    TITLE "0:"
    INDEX 01 00:56:69
  TRACK 34 AUDIO
    TITLE "3:cjc129_2692"
    INDEX 01 00:58:44
  TRACK 35 AUDIO
    TITLE "0:"
    INDEX 01 01:00:19
  TRACK 36 AUDIO
    TITLE "5:cjc129_2693"
    INDEX 01 01:00:49
  TRACK 37 AUDIO
    TITLE "0:"
    INDEX 01 01:02:65
  TRACK 38 AUDIO
    TITLE "4:cjc129_2694"
    INDEX 01 01:03:55
  TRACK 39 AUDIO
    TITLE "0:"
    INDEX 01 01:05:30
  TRACK 40 AUDIO
    TITLE "6:cjc129_2695"
    INDEX 01 01:05:60
  TRACK 41 AUDIO
    TITLE "0:"
    INDEX 01 01:10:45
  TRACK 42 AUDIO
    TITLE "2:cjc129_2696"
    INDEX 01 01:12:19
  TRACK 43 AUDIO
    TITLE "0:"
    INDEX 01 01:18:72
  TRACK 44 AUDIO
    TITLE "3:cjc129_2697"
    INDEX 01 01:20:12
  TRACK 45 AUDIO
    TITLE "0:"
    INDEX 01 01:23:38
  TRACK 46 AUDIO
    TITLE "5:cjc129_2698"
    INDEX 01 01:23:71
  TRACK 47 AUDIO
    TITLE "0:"
    INDEX 01 01:27:42
  TRACK 48 AUDIO
    TITLE "4:cjc129_2699"
    INDEX 01 01:28:31
  TRACK 49 AUDIO
    TITLE "0:"
    INDEX 01 01:31:57
  TRACK 50 AUDIO
    TITLE "6:cjc129_2700"
    INDEX 01 01:32:15
  TRACK 51 AUDIO
    TITLE "0:"
    INDEX 01 01:36:17
  TRACK 52 AUDIO
    TITLE "3:cjc129_2701"
    INDEX 01 01:37:68
  TRACK 53 AUDIO
    TITLE "0:"
    INDEX 01 01:41:57
  TRACK 54 AUDIO
    TITLE "5:cjc129_2702"
    INDEX 01 01:42:14
  TRACK 55 AUDIO
    TITLE "0:"
    INDEX 01 01:44:26
  TRACK 56 AUDIO
    TITLE "4:cjc129_2703"
    INDEX 01 01:45:16
  TRACK 57 AUDIO
    TITLE "0:"
    INDEX 01 01:49:06
  TRACK 58 AUDIO
    TITLE "6:cjc129_2704"
    INDEX 01 01:49:35
  TRACK 59 AUDIO
    TITLE "0:"
    INDEX 01 01:55:03
